<svg xmlns="http://www.w3.org/2000/svg" viewBox="0 0 1045.18 243.45"><defs><style>.cls-1{fill:#0af;}.cls-2{fill:#333;}</style></defs><title>logo-horizontal</title><g id="Capa_2" data-name="Capa 2"><g id="Capa_1-2" data-name="Capa 1"><rect class="cls-1" x="121.64" y="0.18" width="60.83" height="151.94"/><path class="cls-2" d="M395.34,121.73c0,67.22-54,121.72-120.71,121.72H212.88V182.68H273.7a60.78,60.78,0,1,0,0-121.55V152.3H212.88V.36h52.46Q269.94,0,274.63,0C341.3,0,395.34,54.5,395.34,121.73Z"/><path class="cls-1" d="M182.46,182.51v60.77H121.64A121.53,121.53,0,0,1,0,121.72H60.82a60.8,60.8,0,0,0,60.82,60.78Z"/><path class="cls-2" d="M448.58,68.79A4.37,4.37,0,0,1,453,64.33h17.93c5.69,0,10.17,1.58,13,4.45a11.32,11.32,0,0,1,3.34,8.33v.14c0,6-3.42,9.27-7.12,11.21,5.83,2,9.89,5.39,9.89,12.21v.14c0,9-7.33,13.79-18.43,13.79H453a4.37,4.37,0,0,1-4.41-4.45Zm20.56,16.74c5.62,0,9.39-2.23,9.39-6.82v-.14c0-4-3.13-6.39-8.75-6.39H457.19V85.53Zm2.56,21.26c6,0,9.61-2.37,9.61-6.9v-.14c0-4.24-3.34-6.75-10.25-6.75H457.19v13.79Z"/><path class="cls-2" d="M499.1,125.25a3.7,3.7,0,0,1-2.7-3.59,3.48,3.48,0,0,1,3.49-3.59,4.36,4.36,0,0,1,1.57.29,9.62,9.62,0,0,0,3,.5c2.56,0,3.91-1.08,5.34-4l.28-.79L496.11,82.58a5.9,5.9,0,0,1-.5-2.08,4.15,4.15,0,0,1,4.27-4.24c2.21,0,3.42,1.29,4.2,3.3l10.1,25.21,9.39-25.21c.71-1.8,1.92-3.3,4.13-3.3a4.09,4.09,0,0,1,4.13,4.09,7.89,7.89,0,0,1-.36,2.08L517.74,115.7c-3.2,7.76-6.62,10.63-12.67,10.63A15.07,15.07,0,0,1,499.1,125.25Z"/><path class="cls-2" d="M538.44,109.81a4.65,4.65,0,0,1-1.49-3.3,4.18,4.18,0,0,1,4.2-4.24,3.94,3.94,0,0,1,2.7,1c2.42,2.51,4.77,3.88,8.11,3.88,4.84,0,8-3.16,8-9.91V68.36a4.41,4.41,0,0,1,8.82,0V97.52c0,6-1.78,10.42-4.7,13.36s-7.12,4.45-12.1,4.45A18.48,18.48,0,0,1,538.44,109.81Z"/><path class="cls-2" d="M613.23,110.67a4.34,4.34,0,0,1-8.68,0v-1.94c-2.42,3.59-5.91,6.68-11.74,6.68-8.47,0-13.38-5.75-13.38-14.58V80.64a4.31,4.31,0,1,1,8.61,0v17.6c0,5.89,2.92,9.2,8,9.2s8.47-3.45,8.47-9.34V80.64a4.33,4.33,0,0,1,4.34-4.38,4.38,4.38,0,0,1,4.34,4.38Z"/><path class="cls-2" d="M621.48,103.7v-.14c0-8.19,6.33-12.21,15.51-12.21a31.13,31.13,0,0,1,10.1,1.58V92c0-5.39-3.27-8.26-9.32-8.26a22.13,22.13,0,0,0-8.33,1.51,4.8,4.8,0,0,1-1.35.22,3.6,3.6,0,0,1-3.63-3.59,3.79,3.79,0,0,1,2.35-3.45,31.94,31.94,0,0,1,12.1-2.23c5.62,0,9.82,1.51,12.45,4.24s4.06,6.75,4.06,11.71v18.68a4.12,4.12,0,0,1-4.2,4.17,3.9,3.9,0,0,1-4.2-3.66v-1.44a15.21,15.21,0,0,1-12.24,5.53C627.74,115.41,621.48,111.32,621.48,103.7ZM647.24,101V98.38a23.66,23.66,0,0,0-8.54-1.51c-5.55,0-8.82,2.37-8.82,6.32v.14c0,3.66,3.2,5.75,7.33,5.75C642.9,109.09,647.24,105.78,647.24,101Z"/><path class="cls-2" d="M665.73,80.64A4.27,4.27,0,0,1,670,76.26a4.33,4.33,0,0,1,4.34,4.38v1.87c2.42-3.52,5.91-6.61,11.74-6.61,8.47,0,13.38,5.75,13.38,14.51v20.26a4.21,4.21,0,0,1-4.27,4.31,4.27,4.27,0,0,1-4.34-4.31V93.07c0-5.89-2.92-9.27-8-9.27s-8.47,3.52-8.47,9.41v17.46a4.3,4.3,0,1,1-8.61,0Z"/><path class="cls-2" d="M709.71,66.49c0-2.59,2.13-4.24,4.91-4.24s4.91,1.65,4.91,4.24v.43c0,2.59-2.13,4.31-4.91,4.31s-4.91-1.72-4.91-4.31Zm.64,14.15a4.27,4.27,0,0,1,4.27-4.38A4.33,4.33,0,0,1,719,80.64v30a4.3,4.3,0,1,1-8.61,0Z"/><path class="cls-2" d="M730.06,66.49c0-2.59,2.13-4.24,4.91-4.24s4.91,1.65,4.91,4.24v.43c0,2.59-2.13,4.31-4.91,4.31s-4.91-1.72-4.91-4.31Zm.64,14.15A4.27,4.27,0,0,1,735,76.26a4.33,4.33,0,0,1,4.34,4.38v30a4.3,4.3,0,1,1-8.61,0Z"/><path class="cls-2" d="M772.89,68.79a4.37,4.37,0,0,1,4.41-4.45h14.16c15.65,0,26.47,10.85,26.47,25v.14c0,14.15-10.81,25.14-26.47,25.14H777.3a4.37,4.37,0,0,1-4.41-4.45Zm18.57,37.79c10.46,0,17.29-7.11,17.29-17v-.14c0-9.84-6.83-17.1-17.29-17.1h-9.82v34.2Z"/><path class="cls-2" d="M844.75,115.48c-10.89,0-19.28-8-19.28-19.68v-.14c0-10.85,7.61-19.76,18.36-19.76,12,0,17.86,9.91,17.86,18.68a4,4,0,0,1-4.06,4.17H834.08c.93,6.18,5.27,9.63,10.82,9.63a13.42,13.42,0,0,0,8.89-3.3,3.19,3.19,0,0,1,2.21-.79,3.41,3.41,0,0,1,3.42,3.52,3.81,3.81,0,0,1-1.14,2.66A19.18,19.18,0,0,1,844.75,115.48ZM853.29,93c-.57-5.6-3.84-10-9.53-10-5.26,0-9,4.1-9.75,10Z"/><path class="cls-2" d="M869.08,110.81a3.34,3.34,0,0,1-1.64-3,3.46,3.46,0,0,1,3.49-3.52,3.73,3.73,0,0,1,1.85.5,19.7,19.7,0,0,0,10.81,3.66c3.7,0,5.83-1.58,5.83-4.09v-.14c0-2.95-4-4-8.4-5.32C875.49,97.31,869.3,95,869.3,87.75v-.14c0-7.18,5.91-11.57,13.38-11.57a25.63,25.63,0,0,1,11.81,3.09,3.69,3.69,0,0,1,2.06,3.3A3.48,3.48,0,0,1,893,86a3.36,3.36,0,0,1-1.71-.43,20.35,20.35,0,0,0-8.82-2.59c-3.34,0-5.27,1.58-5.27,3.74v.14c0,2.8,4.06,4,8.47,5.39,5.48,1.72,11.67,4.24,11.67,11.06v.14c0,8-6.12,11.93-13.95,11.93A25.5,25.5,0,0,1,869.08,110.81Z"/><path class="cls-2" d="M906,66.49c0-2.59,2.13-4.24,4.91-4.24s4.91,1.65,4.91,4.24v.43c0,2.59-2.13,4.31-4.91,4.31S906,69.51,906,66.92Zm.64,14.15a4.27,4.27,0,0,1,4.27-4.38,4.33,4.33,0,0,1,4.34,4.38v30a4.3,4.3,0,1,1-8.61,0Z"/><path class="cls-2" d="M928.71,122.88a3.56,3.56,0,0,1-2.42-3.45,3.65,3.65,0,0,1,3.63-3.59,3.37,3.37,0,0,1,1.56.36,22.8,22.8,0,0,0,11.53,3c7.68,0,11.88-4,11.88-11.64v-2.95c-3.13,4.09-7,7-13.23,7-8.82,0-17.08-6.61-17.08-17.74v-.14c0-11.21,8.33-17.82,17.08-17.82,6.33,0,10.25,2.95,13.16,6.46v-1.8a4.31,4.31,0,1,1,8.61.07v26.22c0,6.39-1.64,11.13-4.77,14.3-3.42,3.45-8.68,5.1-15.44,5.1A32.21,32.21,0,0,1,928.71,122.88ZM955,93.79v-.14c0-6.18-5.05-10.42-11-10.42s-10.67,4.17-10.67,10.42v.14c0,6.18,4.77,10.42,10.67,10.42S955,100,955,93.79Z"/><path class="cls-2" d="M974.24,80.64a4.27,4.27,0,0,1,4.27-4.38,4.33,4.33,0,0,1,4.34,4.38v1.87c2.42-3.52,5.91-6.61,11.74-6.61,8.47,0,13.38,5.75,13.38,14.51v20.26a4.21,4.21,0,0,1-4.27,4.31,4.27,4.27,0,0,1-4.34-4.31V93.07c0-5.89-2.92-9.27-8-9.27s-8.47,3.52-8.47,9.41v17.46a4.3,4.3,0,1,1-8.61,0Z"/><path class="cls-2" d="M1016.93,110.81a3.34,3.34,0,0,1-1.64-3,3.46,3.46,0,0,1,3.49-3.52,3.73,3.73,0,0,1,1.85.5,19.7,19.7,0,0,0,10.81,3.66c3.7,0,5.83-1.58,5.83-4.09v-.14c0-2.95-4-4-8.4-5.32-5.55-1.58-11.74-3.88-11.74-11.13v-.14c0-7.18,5.91-11.57,13.38-11.57a25.63,25.63,0,0,1,11.81,3.09,3.69,3.69,0,0,1,2.06,3.3,3.48,3.48,0,0,1-3.56,3.52,3.36,3.36,0,0,1-1.71-.43,20.35,20.35,0,0,0-8.82-2.59c-3.34,0-5.27,1.58-5.27,3.74v.14c0,2.8,4.06,4,8.47,5.39,5.48,1.72,11.67,4.24,11.67,11.06v.14c0,8-6.12,11.93-13.95,11.93A25.5,25.5,0,0,1,1016.93,110.81Z"/><path class="cls-2" d="M448.86,145.16a1.37,1.37,0,0,1,1.34-1.35H460.9c11.38,0,19.24,7.81,19.24,18v.1c0,10.19-7.86,18.1-19.24,18.1H450.2a1.37,1.37,0,0,1-1.34-1.35Zm12,32.37c10.08,0,16.45-6.88,16.45-15.52v-.1c0-8.58-6.36-15.62-16.45-15.62h-9.36v31.24Z"/><path class="cls-2" d="M500,145a1.34,1.34,0,1,1,2.69,0v33.93a1.34,1.34,0,1,1-2.69,0Z"/><path class="cls-2" d="M522.66,175.47a1.34,1.34,0,0,1-.52-1,1.37,1.37,0,0,1,1.34-1.34,1.5,1.5,0,0,1,.88.31,16.85,16.85,0,0,0,12.2,4.71c5.43,0,9.15-3.05,9.15-7.19v-.1c0-3.83-2-6.05-10.24-7.71-8.69-1.76-12.2-4.71-12.2-10.19v-.1c0-5.38,4.91-9.52,11.64-9.52A17.75,17.75,0,0,1,546.45,147a1.41,1.41,0,0,1,.57,1.09,1.37,1.37,0,0,1-1.34,1.34,1.4,1.4,0,0,1-.88-.31,15.49,15.49,0,0,0-10-3.41c-5.33,0-8.84,3.05-8.84,6.83v.1c0,3.83,2,6.15,10.55,7.91,8.38,1.71,11.89,4.71,11.89,10v.1c0,5.84-5,9.88-12,9.88A20.48,20.48,0,0,1,522.66,175.47Z"/><path class="cls-2" d="M567.6,178.67V145.16a1.37,1.37,0,0,1,1.34-1.35h23.38a1.24,1.24,0,1,1,0,2.48h-22v14.22H590a1.24,1.24,0,0,1,0,2.48h-19.7v14.53h22.29a1.24,1.24,0,0,1,0,2.48H568.94A1.37,1.37,0,0,1,567.6,178.67Z"/><path class="cls-2" d="M612.6,145a1.37,1.37,0,0,1,1.34-1.34h.41a1.68,1.68,0,0,1,1.35.78l24.41,31V144.9a1.29,1.29,0,0,1,2.59,0V179a1.1,1.1,0,0,1-1.09,1.14h-.21a1.84,1.84,0,0,1-1.35-.88l-24.87-31.55v31.18a1.29,1.29,0,0,1-2.59,0Zm8.64-4a.88.88,0,0,1-.93-.88,2.66,2.66,0,0,1,.1-.62c1-3,2.22-3.88,4.09-3.88s4.86,2.12,6.62,2.12c1.14,0,1.71-.57,2.33-2a1.15,1.15,0,0,1,.93-.72.88.88,0,0,1,.93.88,2.56,2.56,0,0,1-.1.62c-1,3-2.22,3.88-4.09,3.88s-4.86-2.12-6.62-2.12c-1.14,0-1.71.57-2.33,2A1.08,1.08,0,0,1,621.23,141Z"/><path class="cls-2" d="M662.19,162v-.1c0-9.88,7.29-18.72,18.26-18.72s18.15,8.74,18.15,18.62v.1c0,9.88-7.29,18.72-18.25,18.72S662.19,171.9,662.19,162Zm33.62,0v-.1c0-8.95-6.52-16.29-15.46-16.29S665,152.87,665,161.81v.1c0,8.95,6.52,16.29,15.46,16.29S695.81,171,695.81,162Z"/><path class="cls-2" d="M742.36,162v-.1c0-9.77,7.09-18.72,17.89-18.72a19,19,0,0,1,12.36,4A1.33,1.33,0,1,1,771,149.3a16.21,16.21,0,0,0-10.86-3.67c-8.79,0-14.95,7.45-14.95,16.19v.1c0,9.36,5.84,16.34,15.52,16.34a18.59,18.59,0,0,0,11.53-4.14V163.73H760.92a1.24,1.24,0,0,1,0-2.48h12.52a1.37,1.37,0,0,1,1.35,1.35v11.84a2.2,2.2,0,0,1-.93,1.55,21.59,21.59,0,0,1-13.29,4.66C749.13,180.64,742.36,172.21,742.36,162Z"/><path class="cls-2" d="M794.85,145.16a1.37,1.37,0,0,1,1.34-1.35h13.86c4.45,0,8,1.4,10.19,3.57a9.55,9.55,0,0,1,2.74,6.72v.1c0,6.05-4.5,9.52-10.6,10.34l10.29,13.34a1.49,1.49,0,0,1,.41.93,1.46,1.46,0,0,1-1.4,1.4,1.49,1.49,0,0,1-1.19-.72L809.38,165H797.54v13.86a1.34,1.34,0,1,1-2.69,0Zm14.89,17.43c6.05,0,10.55-3.05,10.55-8.27v-.1c0-4.86-3.83-7.91-10.39-7.91H797.54v16.29Z"/><path class="cls-2" d="M840.31,178.26l15.46-33.51a1.89,1.89,0,0,1,1.81-1.29h.1a1.89,1.89,0,0,1,1.81,1.29l15.41,33.41a1.78,1.78,0,0,1,.21.83,1.27,1.27,0,0,1-1.29,1.24,1.56,1.56,0,0,1-1.35-1l-4.24-9.31H846.88l-4.24,9.36a1.36,1.36,0,0,1-1.29,1,1.21,1.21,0,0,1-1.24-1.14A1.93,1.93,0,0,1,840.31,178.26Zm26.79-10.81-9.52-20.95L848,167.45Zm-10.24-27.82a1.09,1.09,0,0,1,.21-.57l3.21-4.81a1.67,1.67,0,0,1,1.45-.93c1,0,2.17.67,2.17,1.19a1.53,1.53,0,0,1-.57.93l-4.14,4a2,2,0,0,1-1.65.67C857.17,140.09,856.86,139.89,856.86,139.63Z"/><path class="cls-2" d="M893.79,145.16a1.37,1.37,0,0,1,1.34-1.35h23.12a1.24,1.24,0,0,1,0,2.48H896.48v14.84h19.45a1.24,1.24,0,1,1,0,2.48H896.48v15.26a1.34,1.34,0,1,1-2.69,0Z"/><path class="cls-2" d="M938.42,145a1.34,1.34,0,1,1,2.69,0v33.93a1.34,1.34,0,1,1-2.69,0Z"/><path class="cls-2" d="M961,162v-.1c0-10.24,7.66-18.72,18.1-18.72a18.91,18.91,0,0,1,13.29,5.07,1.55,1.55,0,0,1,.52,1.09,1.41,1.41,0,0,1-1.4,1.34,1.38,1.38,0,0,1-.93-.36A16.16,16.16,0,0,0,979,145.63c-8.69,0-15.26,7.08-15.26,16.19v.1c0,9.16,6.67,16.29,15.31,16.29,4.91,0,8.38-1.76,11.79-5a1.31,1.31,0,0,1,.93-.41,1.35,1.35,0,0,1,1.29,1.29,1.31,1.31,0,0,1-.41.93c-3.67,3.41-7.65,5.64-13.7,5.64C968.62,180.64,961,172.42,961,162Z"/><path class="cls-2" d="M1008.45,162v-.1c0-9.88,7.29-18.72,18.26-18.72s18.15,8.74,18.15,18.62v.1c0,9.88-7.29,18.72-18.25,18.72S1008.45,171.9,1008.45,162Zm33.62,0v-.1c0-8.95-6.52-16.29-15.46-16.29s-15.36,7.24-15.36,16.19v.1c0,8.95,6.52,16.29,15.46,16.29S1042.06,171,1042.06,162Z"/></g></g></svg>