<svg width="301" height="301" viewBox="0 0 301 301" fill="none" xmlns="http://www.w3.org/2000/svg">
<path d="M144.344 58.11H102.072V193.795H144.344V58.11Z" fill="#00AAFF"/>
<path d="M144.344 200.593H102.046V242.89H144.344V200.593Z" fill="#00AAFF"/>
<path d="M199.143 58.11H157.033V193.795H199.143V58.11Z" fill="#353535"/>
<path d="M199.023 200.593H156.488V242.89H199.023V200.593Z" fill="#353535"/>
<path d="M292.329 150.5C292.329 99.5564 250.883 58.1103 199.939 58.1103C199.598 58.1103 199.257 58.113 198.916 58.1167V100.408C205.659 100.415 212.201 101.739 218.361 104.344C224.326 106.867 229.683 110.479 234.283 115.08C238.884 119.68 242.496 125.037 245.019 131.002C247.631 137.178 248.955 143.738 248.955 150.501C248.955 157.263 247.63 163.823 245.019 169.999C242.496 175.964 238.884 181.321 234.283 185.922C229.683 190.522 224.326 194.134 218.361 196.657C212.201 199.263 205.659 200.587 198.916 200.594V242.885C199.257 242.889 199.598 242.891 199.939 242.891C250.884 242.89 292.329 201.444 292.329 150.5Z" fill="#353535"/>
<path d="M66.679 185.921C62.0785 181.321 58.4666 175.964 55.9436 169.999C53.6691 164.62 52.371 158.951 52.0736 153.11H8.67004C10.0568 202.852 50.9512 242.89 101.022 242.89C101.364 242.89 101.705 242.887 102.046 242.884V200.592C95.3025 200.586 88.7604 199.261 82.6011 196.656C76.6366 194.133 71.2795 190.521 66.679 185.921Z" fill="#00AAFF"/>
</svg>
