<svg width="55" height="55" viewBox="0 0 55 55" fill="none" xmlns="http://www.w3.org/2000/svg">
<path d="M26.3752 10.6181H18.651V35.4109H26.3752V10.6181Z" fill="#00AAFF"/>
<path d="M26.3751 36.6531H18.6464V44.3818H26.3751V36.6531Z" fill="#00AAFF"/>
<path d="M36.3883 10.6181H28.6937V35.4109H36.3883V10.6181Z" fill="#353535"/>
<path d="M36.3663 36.6531H28.5942V44.3818H36.3663V36.6531Z" fill="#353535"/>
<path d="M53.4156 27.5C53.4156 18.1914 45.8424 10.6182 36.5338 10.6182C36.4713 10.6182 36.409 10.6186 36.3467 10.6193V18.347C37.5789 18.3482 38.7743 18.5902 39.8998 19.0662C40.9897 19.5272 41.9686 20.1872 42.8092 21.0279C43.6498 21.8685 44.3098 22.8473 44.7708 23.9373C45.2481 25.0658 45.4901 26.2645 45.4901 27.5001C45.4901 28.7358 45.248 29.9345 44.7708 31.063C44.3098 32.1529 43.6498 33.1318 42.8092 33.9724C41.9686 34.813 40.9897 35.473 39.8998 35.934C38.7743 36.4101 37.5789 36.652 36.3467 36.6533V44.3809C36.409 44.3816 36.4714 44.3821 36.5338 44.3821C45.8425 44.3819 53.4156 36.8087 53.4156 27.5Z" fill="#353535"/>
<path d="M12.1839 33.9723C11.3432 33.1317 10.6833 32.1528 10.2223 31.0629C9.80664 30.0801 9.56944 29.0442 9.51512 27.9769H1.58423C1.83763 37.0659 9.31003 44.3819 18.4592 44.3819C18.5217 44.3819 18.584 44.3814 18.6463 44.3808V36.6531C17.4141 36.6518 16.2187 36.4099 15.0932 35.9339C14.0034 35.4728 13.0245 34.8129 12.1839 33.9723Z" fill="#00AAFF"/>
</svg>
