<svg width="168" height="168" viewBox="0 0 168 168" fill="none" xmlns="http://www.w3.org/2000/svg">
<path d="M80.5641 32.4333H56.9703L56.9703 108.164H80.5641V32.4333Z" fill="#00AAFF"/>
<path d="M80.5638 111.959H56.9562V135.566H80.5638V111.959Z" fill="#00AAFF"/>
<path d="M111.15 32.4335H87.6463V108.164H111.15V32.4335Z" fill="#353535"/>
<path d="M111.083 111.959H87.3424V135.566H111.083V111.959Z" fill="#353535"/>
<path d="M163.16 84C163.16 55.5663 140.028 32.4336 111.594 32.4336C111.403 32.4336 111.213 32.4351 111.023 32.4371V56.0416C114.786 56.0454 118.438 56.7845 121.876 58.2386C125.205 59.6468 128.195 61.6627 130.763 64.2305C133.33 66.7982 135.346 69.7882 136.755 73.1175C138.213 76.5644 138.952 80.2259 138.952 84.0003C138.952 87.7747 138.212 91.4362 136.755 94.8832C135.346 98.2125 133.33 101.203 130.763 103.77C128.195 106.338 125.205 108.354 121.876 109.762C118.438 111.216 114.786 111.955 111.023 111.959V135.564C111.213 135.566 111.404 135.567 111.594 135.567C140.028 135.566 163.16 112.434 163.16 84Z" fill="#353535"/>
<path d="M37.2162 103.77C34.6485 101.202 32.6325 98.2123 31.2243 94.883C29.9548 91.8812 29.2303 88.7169 29.0644 85.4567H4.8391C5.61312 113.22 28.4379 135.567 56.3845 135.567C56.5754 135.567 56.7656 135.565 56.9559 135.563V111.959C53.1921 111.955 49.5407 111.216 46.1029 109.762C42.7739 108.353 39.7839 106.337 37.2162 103.77Z" fill="#00AAFF"/>
</svg>
