<svg xmlns="http://www.w3.org/2000/svg" viewBox="0 0 1876.49 686.87"><defs><style>.cls-1{fill:#da952e;}.cls-2{font-size:112.08px;fill:#d19134;font-family:Garamond, Garamond;letter-spacing:0.1em;}.cls-3{letter-spacing:0.08em;}</style></defs><title>Recurso 2</title><g id="Capa_2" data-name="Capa 2"><g id="Capa_1-2" data-name="Capa 1"><path class="cls-1" d="M1877.19,130.09A60.09,60.09,0,0,1,1826.09,177l-17.62,81.65c2.33-10.8-30.83-27.14-74.07-36.48s-80.21-8.13-82.54,2.68l17.62-81.65a60.09,60.09,0,0,1,44.21-109.88l.37.08a60.09,60.09,0,0,1,110.8,24.26,60,60,0,0,1,52.34,72.42Z" transform="translate(-2.07)"/><path class="cls-1" d="M535.06,342.91l0-.77c-4-76.28,49.71-142.45,127.52-146.53,44.69-2.34,73.62,11.59,101,32.56,2,1.83,4.09,4.42,4.27,7.89.28,5.39-4.48,10.28-9.87,10.56a10.28,10.28,0,0,1-7.08-2.33c-23.41-19.25-50-32.53-87.74-30.55-64.72,3.39-110.88,58.74-107.32,126.54l0,.77c3.58,68.19,56.06,118.75,120.39,115.37,36.6-1.92,61.72-16.37,85.88-42a9.78,9.78,0,0,1,6.77-3.45A10.07,10.07,0,0,1,779,420.12a9.79,9.79,0,0,1-2.72,7.1c-26,26.86-54.82,45-99.89,47.34C599.35,478.6,539.12,420.34,535.06,342.91Z" transform="translate(-2.07)"/><path class="cls-1" d="M673.77,34l9.14,174.32L648,210.11,638.9,35.79c-1-19.26,6-35.28,15.61-35.78S672.76,14.7,673.77,34Z" transform="translate(-2.07)"/><path class="cls-1" d="M567.62,341l0-.6c-3.1-59.15,38.55-110.47,98.89-113.63,34.66-1.82,57.09,9,78.31,25.25a9,9,0,0,1,3.32,6.12c.22,4.18-3.48,8-7.66,8.19a8,8,0,0,1-5.49-1.81c-18.16-14.93-38.77-25.23-68-23.69-50.19,2.63-86,45.55-83.23,98.13l0,.6c2.77,52.88,43.47,92.09,93.36,89.47,28.38-1.49,47.86-12.69,66.6-32.55a7.59,7.59,0,0,1,5.25-2.67,7.81,7.81,0,0,1,7.86,7.08,7.59,7.59,0,0,1-2.11,5.5c-20.18,20.83-42.51,34.88-77.46,36.71C617.47,446.26,570.76,401.07,567.62,341Z" transform="translate(-2.07)"/><path class="cls-1" d="M2.18,275.89c-.85-5.35,3.27-10.71,8.93-11.59q54.12-8.41,108.37-15.91c28.08-2.88,59.7-1.08,83.06,16.13,14.73,10.85,25.16,29.09,27.35,47.38l.09.77c5.68,46.05-30.94,76.19-71.67,87.12q45.63,44.15,90.35,89.21c2.21,2.07,3.65,4.24,3.93,6.55.64,5.38-3.79,11-9.2,11.63-3.86.47-6.85-1.51-9.55-4.3Q185.43,454,135.94,406.33q-45.08,6.28-90.07,13.18L61.72,522a10.15,10.15,0,0,1-20.05,3.14Zm134,112c37.09-5,78.55-28.77,73.07-72l-.09-.77C204,271.37,157.51,261.78,120.8,267Q72.57,273.64,24.45,281L43.08,401.53Q89.6,394.39,136.21,387.93Z" transform="translate(-2.07)"/><path class="cls-1" d="M321,486.64,294.44,237.2c-.57-5.39,3.8-10.53,9.49-11.12q91.74-9.5,183.7-16.29c5.29-.38,10.07,3.55,10.42,8.57s-3.8,9.58-9.08,10q-86.41,6.38-172.59,15.14l10.89,105.9q75.67-7.7,151.5-13.53a9.29,9.29,0,1,1,1.41,18.53q-75.59,5.82-151,13.49l11.13,108.21q83.68-8.51,167.56-14.67a9.29,9.29,0,1,1,1.34,18.53q-88.65,6.51-177.06,15.66A10.29,10.29,0,0,1,321,486.64Z" transform="translate(-2.07)"/><path class="cls-1" d="M814.58,456.25l-4.22-250.82c-.09-5.42,4.72-10.15,10.43-10.23q92.13-1.28,184.24.16c5.3.09,9.7,4.43,9.61,9.46s-4.64,9.21-9.92,9.12q-86.55-1.35-173.09-.31L833,320.08q76-.92,152,0a9.29,9.29,0,1,1-.25,18.58q-75.73-.94-151.46,0l1.43,108.77q84-1,168,.33a9.29,9.29,0,1,1-.32,18.58q-88.79-1.42-177.58-.19A10.28,10.28,0,0,1,814.58,456.25Z" transform="translate(-2.07)"/><path class="cls-1" d="M1161.5,218.7q-45.48-1.95-91-3.28c-5.28-.15-9.64-4.52-9.5-9.55s4.73-9.17,10-9q101.9,3,203.65,9.32c5.29.34,9.49,4.88,9.17,9.9s-5.07,9-10.34,8.65q-45.44-2.83-90.91-5-5.8,121.81-11.59,243.61a10.12,10.12,0,0,1-20.22-.93Q1156.15,340.52,1161.5,218.7Z" transform="translate(-2.07)"/><path class="cls-1" d="M1275.5,464.58q66.85-121.73,138.11-240.94c3.35-5.54,7.76-9,15.08-8.38l.81.07c7.32.66,11,4.89,13.34,10.94q48.61,129.65,92.53,261a13.19,13.19,0,0,1,.85,6.33,9.55,9.55,0,0,1-10.72,8.14c-4.64-.52-7.73-4.37-9.2-8.82q-12.09-36.42-24.5-72.72-81-8.39-162.19-14.61-18.7,33.7-37.11,67.56c-2.26,4.5-5.55,7-10.21,6.67-5-.34-9.05-4.49-8.74-9.12A14.35,14.35,0,0,1,1275.5,464.58ZM1485,401.17q-28.31-81.9-58.39-163.16-44.32,74.56-87,150.06Q1412.41,393.76,1485,401.17Z" transform="translate(-2.07)"/><path class="cls-1" d="M1584.7,472.8a10,10,0,0,1-3-8.16,10.31,10.31,0,0,1,11.36-8.75,11.43,11.43,0,0,1,6.34,3.13c23,26,52.9,42.22,87,47.14,30.86,4.46,71.18-7.43,76.62-43l.12-.77c7.08-41.29-38.23-57.27-69.25-68.52-40.95-14.84-89.64-36.47-83.86-88l.09-.77c5.82-47.49,58.81-64.56,99.92-58.7,32.54,4.64,62.46,17.35,85.94,40.86a10.36,10.36,0,0,1,3.17,8.72c-.84,5.35-6.37,9.19-12,8.32a11.38,11.38,0,0,1-6.47-3.35c-21.28-19.76-45-32.6-74-36.65s-72,6-75.52,41.48l-.1.77c-6,42.23,41.76,58.07,73.34,69.62,39.62,14.49,86.88,37.61,79.28,87.45l-.12.76c-7.52,48.1-57.94,65.71-100.9,59.63C1644.77,518.65,1611,500.7,1584.7,472.8Z" transform="translate(-2.07)"/><text class="cls-2" transform="translate(238.12 652.5)">EL LIB<tspan class="cls-3" x="405.77" y="0">R</tspan><tspan x="484.23" y="0">O DE COCINA</tspan></text></g></g></svg>