<svg xmlns="http://www.w3.org/2000/svg" viewBox="0 0 596.6 382.79"><defs><style>.cls-1{fill:#0af;}.cls-2{fill:#333;}</style></defs><title>Recurso 2</title><g id="Capa_2" data-name="Capa 2"><g id="Capa_1-2" data-name="Capa 1"><rect class="cls-1" x="217.06" y="0.18" width="60.83" height="151.94"/><path class="cls-2" d="M490.76,121.73c0,67.22-54,121.72-120.71,121.72H308.3V182.68h60.82a60.78,60.78,0,1,0,0-121.55V152.3H308.3V.36h52.46Q365.36,0,370,0C436.72,0,490.76,54.5,490.76,121.73Z"/><path class="cls-1" d="M277.88,182.51v60.77H217.06A121.53,121.53,0,0,1,95.42,121.72h60.82a60.8,60.8,0,0,0,60.82,60.78Z"/><path class="cls-2" d="M0,275.79a4.37,4.37,0,0,1,4.41-4.45H22.34c5.69,0,10.17,1.58,13,4.45a11.32,11.32,0,0,1,3.34,8.33v.14c0,6-3.42,9.27-7.12,11.21,5.83,2,9.89,5.39,9.89,12.21v.14c0,9-7.33,13.79-18.43,13.79H4.41A4.37,4.37,0,0,1,0,317.17Zm20.56,16.74c5.62,0,9.39-2.23,9.39-6.82v-.14c0-4-3.13-6.39-8.75-6.39H8.61v13.36Zm2.56,21.26c6,0,9.61-2.37,9.61-6.9v-.14c0-4.24-3.34-6.75-10.25-6.75H8.61v13.79Z"/><path class="cls-2" d="M50.52,332.25a3.7,3.7,0,0,1-2.7-3.59,3.48,3.48,0,0,1,3.49-3.59,4.36,4.36,0,0,1,1.57.29,9.62,9.62,0,0,0,3,.5c2.56,0,3.91-1.08,5.34-4l.28-.79L47.53,289.58a5.9,5.9,0,0,1-.5-2.08,4.15,4.15,0,0,1,4.27-4.24c2.21,0,3.42,1.29,4.2,3.3l10.1,25.21L75,286.56c.71-1.8,1.92-3.3,4.13-3.3a4.09,4.09,0,0,1,4.13,4.09,7.89,7.89,0,0,1-.36,2.08L69.16,322.7c-3.2,7.76-6.62,10.63-12.67,10.63A15.07,15.07,0,0,1,50.52,332.25Z"/><path class="cls-2" d="M89.86,316.81a4.65,4.65,0,0,1-1.49-3.3,4.18,4.18,0,0,1,4.2-4.24,3.94,3.94,0,0,1,2.7,1c2.42,2.51,4.77,3.88,8.11,3.88,4.84,0,8-3.16,8-9.91V275.36a4.41,4.41,0,0,1,8.82,0v29.17c0,6-1.78,10.42-4.7,13.36s-7.12,4.45-12.1,4.45A18.48,18.48,0,0,1,89.86,316.81Z"/><path class="cls-2" d="M164.64,317.67a4.34,4.34,0,0,1-8.68,0v-1.94c-2.42,3.59-5.91,6.68-11.74,6.68-8.47,0-13.38-5.75-13.38-14.58V287.64a4.31,4.31,0,1,1,8.61,0v17.6c0,5.89,2.92,9.2,8,9.2S156,311,156,305.1V287.64a4.33,4.33,0,0,1,4.34-4.38,4.38,4.38,0,0,1,4.34,4.38Z"/><path class="cls-2" d="M172.9,310.7v-.14c0-8.19,6.33-12.21,15.51-12.21a31.13,31.13,0,0,1,10.1,1.58V299c0-5.39-3.27-8.26-9.32-8.26a22.13,22.13,0,0,0-8.33,1.51,4.8,4.8,0,0,1-1.35.22,3.6,3.6,0,0,1-3.63-3.59,3.79,3.79,0,0,1,2.35-3.45,31.94,31.94,0,0,1,12.1-2.23c5.62,0,9.82,1.51,12.45,4.24s4.06,6.75,4.06,11.71v18.68a4.12,4.12,0,0,1-4.2,4.17,3.9,3.9,0,0,1-4.2-3.66v-1.44a15.21,15.21,0,0,1-12.24,5.53C179.16,322.41,172.9,318.32,172.9,310.7ZM198.65,308v-2.59a23.66,23.66,0,0,0-8.54-1.51c-5.55,0-8.82,2.37-8.82,6.32v.14c0,3.66,3.2,5.75,7.33,5.75C194.31,316.09,198.65,312.78,198.65,308Z"/><path class="cls-2" d="M217.15,287.64a4.27,4.27,0,0,1,4.27-4.38,4.33,4.33,0,0,1,4.34,4.38v1.87c2.42-3.52,5.91-6.61,11.74-6.61,8.47,0,13.38,5.75,13.38,14.51v20.26a4.21,4.21,0,0,1-4.27,4.31,4.27,4.27,0,0,1-4.34-4.31v-17.6c0-5.89-2.92-9.27-8-9.27s-8.47,3.52-8.47,9.41v17.46a4.3,4.3,0,1,1-8.61,0Z"/><path class="cls-2" d="M261.13,273.49c0-2.59,2.13-4.24,4.91-4.24s4.91,1.65,4.91,4.24v.43c0,2.59-2.13,4.31-4.91,4.31s-4.91-1.72-4.91-4.31Zm.64,14.15a4.27,4.27,0,0,1,4.27-4.38,4.33,4.33,0,0,1,4.34,4.38v30a4.3,4.3,0,1,1-8.61,0Z"/><path class="cls-2" d="M281.47,273.49c0-2.59,2.13-4.24,4.91-4.24s4.91,1.65,4.91,4.24v.43c0,2.59-2.13,4.31-4.91,4.31s-4.91-1.72-4.91-4.31Zm.64,14.15a4.27,4.27,0,0,1,4.27-4.38,4.33,4.33,0,0,1,4.34,4.38v30a4.3,4.3,0,1,1-8.61,0Z"/><path class="cls-2" d="M324.31,275.79a4.37,4.37,0,0,1,4.41-4.45h14.16c15.65,0,26.47,10.85,26.47,25v.14c0,14.15-10.81,25.14-26.47,25.14H328.72a4.37,4.37,0,0,1-4.41-4.45Zm18.57,37.79c10.46,0,17.29-7.11,17.29-17v-.14c0-9.84-6.83-17.1-17.29-17.1h-9.82v34.2Z"/><path class="cls-2" d="M396.17,322.48c-10.89,0-19.28-8-19.28-19.68v-.14c0-10.85,7.61-19.76,18.36-19.76,12,0,17.86,9.91,17.86,18.68a4,4,0,0,1-4.06,4.17H385.5c.93,6.18,5.27,9.63,10.82,9.63a13.42,13.42,0,0,0,8.89-3.3,3.19,3.19,0,0,1,2.21-.79,3.41,3.41,0,0,1,3.42,3.52,3.81,3.81,0,0,1-1.14,2.66A19.18,19.18,0,0,1,396.17,322.48ZM404.71,300c-.57-5.6-3.84-10-9.53-10-5.26,0-9,4.1-9.75,10Z"/><path class="cls-2" d="M420.5,317.81a3.34,3.34,0,0,1-1.64-3,3.46,3.46,0,0,1,3.49-3.52,3.73,3.73,0,0,1,1.85.5A19.7,19.7,0,0,0,435,315.44c3.7,0,5.83-1.58,5.83-4.09v-.14c0-2.95-4-4-8.4-5.32-5.55-1.58-11.74-3.88-11.74-11.13v-.14c0-7.18,5.91-11.57,13.38-11.57a25.63,25.63,0,0,1,11.81,3.09,3.69,3.69,0,0,1,2.06,3.3,3.48,3.48,0,0,1-3.56,3.52,3.36,3.36,0,0,1-1.71-.43,20.35,20.35,0,0,0-8.82-2.59c-3.34,0-5.27,1.58-5.27,3.74v.14c0,2.8,4.06,4,8.47,5.39,5.48,1.72,11.67,4.24,11.67,11.06v.14c0,8-6.12,11.93-13.95,11.93A25.5,25.5,0,0,1,420.5,317.81Z"/><path class="cls-2" d="M457.43,273.49c0-2.59,2.13-4.24,4.91-4.24s4.91,1.65,4.91,4.24v.43c0,2.59-2.13,4.31-4.91,4.31s-4.91-1.72-4.91-4.31Zm.64,14.15a4.27,4.27,0,0,1,4.27-4.38,4.33,4.33,0,0,1,4.34,4.38v30a4.3,4.3,0,1,1-8.61,0Z"/><path class="cls-2" d="M480.13,329.88a3.56,3.56,0,0,1-2.42-3.45,3.65,3.65,0,0,1,3.63-3.59,3.37,3.37,0,0,1,1.56.36,22.8,22.8,0,0,0,11.53,3c7.68,0,11.88-4,11.88-11.64v-2.95c-3.13,4.09-7,7-13.23,7-8.82,0-17.08-6.61-17.08-17.74v-.14c0-11.21,8.33-17.82,17.08-17.82,6.33,0,10.25,2.95,13.16,6.46v-1.8a4.31,4.31,0,1,1,8.61.07v26.22c0,6.39-1.64,11.13-4.77,14.3-3.42,3.45-8.68,5.1-15.44,5.1A32.21,32.21,0,0,1,480.13,329.88Zm26.25-29.09v-.14c0-6.18-5.05-10.42-11-10.42s-10.67,4.17-10.67,10.42v.14c0,6.18,4.77,10.42,10.67,10.42S506.38,307,506.38,300.79Z"/><path class="cls-2" d="M525.66,287.64a4.27,4.27,0,0,1,4.27-4.38,4.33,4.33,0,0,1,4.34,4.38v1.87c2.42-3.52,5.91-6.61,11.74-6.61,8.47,0,13.38,5.75,13.38,14.51v20.26a4.21,4.21,0,0,1-4.27,4.31,4.27,4.27,0,0,1-4.34-4.31v-17.6c0-5.89-2.92-9.27-8-9.27s-8.47,3.52-8.47,9.41v17.46a4.3,4.3,0,1,1-8.61,0Z"/><path class="cls-2" d="M568.35,317.81a3.34,3.34,0,0,1-1.64-3,3.46,3.46,0,0,1,3.49-3.52,3.73,3.73,0,0,1,1.85.5,19.7,19.7,0,0,0,10.81,3.66c3.7,0,5.83-1.58,5.83-4.09v-.14c0-2.95-4-4-8.4-5.32-5.55-1.58-11.74-3.88-11.74-11.13v-.14c0-7.18,5.91-11.57,13.38-11.57a25.63,25.63,0,0,1,11.81,3.09,3.69,3.69,0,0,1,2.06,3.3,3.48,3.48,0,0,1-3.56,3.52,3.36,3.36,0,0,1-1.71-.43,20.35,20.35,0,0,0-8.82-2.59c-3.34,0-5.27,1.58-5.27,3.74v.14c0,2.8,4.06,4,8.47,5.39,5.48,1.72,11.67,4.24,11.67,11.06v.14c0,8-6.12,11.93-13.95,11.93A25.5,25.5,0,0,1,568.35,317.81Z"/><path class="cls-2" d="M126.19,362.22a.79.79,0,0,1,.78-.78h6.21c6.6,0,11.16,4.53,11.16,10.44v.06c0,5.91-4.56,10.5-11.16,10.5H127a.79.79,0,0,1-.78-.78Zm7,18.78c5.85,0,9.54-4,9.54-9v-.06c0-5-3.69-9.06-9.54-9.06h-5.43V381Z"/><path class="cls-2" d="M155.86,362.1a.78.78,0,1,1,1.56,0v19.68a.78.78,0,1,1-1.56,0Z"/><path class="cls-2" d="M169,379.79a.78.78,0,0,1-.3-.6.79.79,0,0,1,.78-.78.87.87,0,0,1,.51.18,9.77,9.77,0,0,0,7.08,2.73c3.15,0,5.31-1.77,5.31-4.17v-.06c0-2.22-1.17-3.51-5.94-4.47-5-1-7.08-2.73-7.08-5.91v-.06c0-3.12,2.85-5.52,6.75-5.52a10.3,10.3,0,0,1,6.69,2.16.82.82,0,0,1,.33.63.79.79,0,0,1-.78.78.81.81,0,0,1-.51-.18,9,9,0,0,0-5.79-2c-3.09,0-5.13,1.77-5.13,4v.06c0,2.22,1.14,3.57,6.12,4.59s6.9,2.73,6.9,5.79V377c0,3.39-2.91,5.73-7,5.73A11.88,11.88,0,0,1,169,379.79Z"/><path class="cls-2" d="M195.07,381.65V362.22a.79.79,0,0,1,.78-.78h13.56a.72.72,0,1,1,0,1.44H196.63v8.25h11.43a.72.72,0,0,1,0,1.44H196.63V381h12.93a.72.72,0,0,1,0,1.44H195.85A.79.79,0,0,1,195.07,381.65Z"/><path class="cls-2" d="M221.17,362.12a.79.79,0,0,1,.78-.78h.24a1,1,0,0,1,.78.45l14.16,18v-17.7a.75.75,0,0,1,1.5,0v19.8a.64.64,0,0,1-.63.66h-.12a1.07,1.07,0,0,1-.78-.51l-14.43-18.3V381.8a.75.75,0,0,1-1.5,0Zm5-2.31a.51.51,0,0,1-.54-.51,1.54,1.54,0,0,1,.06-.36c.57-1.74,1.29-2.25,2.37-2.25s2.82,1.23,3.84,1.23c.66,0,1-.33,1.35-1.14a.67.67,0,0,1,.54-.42.51.51,0,0,1,.54.51,1.49,1.49,0,0,1-.06.36c-.57,1.74-1.29,2.25-2.37,2.25s-2.82-1.23-3.84-1.23c-.66,0-1,.33-1.35,1.14A.63.63,0,0,1,226.18,359.82Z"/><path class="cls-2" d="M249.94,372v-.06a10.57,10.57,0,0,1,10.59-10.86c6.36,0,10.53,5.07,10.53,10.8v.06a10.57,10.57,0,0,1-10.59,10.86C254.11,382.79,249.94,377.72,249.94,372Zm19.5,0v-.06c0-5.19-3.78-9.45-9-9.45s-8.91,4.2-8.91,9.39v.06c0,5.19,3.78,9.45,9,9.45S269.44,377.18,269.44,372Z"/><path class="cls-2" d="M296.44,372v-.06c0-5.67,4.11-10.86,10.38-10.86a11,11,0,0,1,7.17,2.34.77.77,0,1,1-1,1.2,9.4,9.4,0,0,0-6.3-2.13c-5.1,0-8.67,4.32-8.67,9.39v.06c0,5.43,3.39,9.48,9,9.48a10.78,10.78,0,0,0,6.69-2.4v-6h-6.54a.72.72,0,0,1,0-1.44h7.26a.79.79,0,0,1,.78.78v6.87a1.27,1.27,0,0,1-.54.9,12.52,12.52,0,0,1-7.71,2.7C300.37,382.79,296.44,377.9,296.44,372Z"/><path class="cls-2" d="M326.89,362.22a.79.79,0,0,1,.78-.78h8a8.27,8.27,0,0,1,5.91,2.07,5.54,5.54,0,0,1,1.59,3.9v.06c0,3.51-2.61,5.52-6.15,6l6,7.74a.87.87,0,0,1,.24.54.85.85,0,0,1-.81.81.86.86,0,0,1-.69-.42l-6.45-8.4h-6.87v8a.78.78,0,1,1-1.56,0Zm8.64,10.11c3.51,0,6.12-1.77,6.12-4.8v-.06c0-2.82-2.22-4.59-6-4.59h-7.17v9.45Z"/><path class="cls-2" d="M353.26,381.41l9-19.44a1.1,1.1,0,0,1,1-.75h.06a1.1,1.1,0,0,1,1,.75l8.94,19.38a1,1,0,0,1,.12.48.74.74,0,0,1-.75.72.9.9,0,0,1-.78-.6l-2.46-5.4H357.07L354.61,382a.79.79,0,0,1-.75.57.7.7,0,0,1-.72-.66A1.12,1.12,0,0,1,353.26,381.41Zm15.54-6.27L363.28,363l-5.55,12.15ZM362.86,359a.63.63,0,0,1,.12-.33l1.86-2.79a1,1,0,0,1,.84-.54c.57,0,1.26.39,1.26.69a.89.89,0,0,1-.33.54l-2.4,2.31a1.18,1.18,0,0,1-1,.39C363,359.28,362.86,359.16,362.86,359Z"/><path class="cls-2" d="M384.28,362.22a.79.79,0,0,1,.78-.78h13.41a.72.72,0,0,1,0,1.44H385.84v8.61h11.28a.72.72,0,1,1,0,1.44H385.84v8.85a.78.78,0,1,1-1.56,0Z"/><path class="cls-2" d="M410.17,362.1a.78.78,0,1,1,1.56,0v19.68a.78.78,0,1,1-1.56,0Z"/><path class="cls-2" d="M423.25,372v-.06a10.55,10.55,0,0,1,10.5-10.86,11,11,0,0,1,7.71,2.94.9.9,0,0,1,.3.63.82.82,0,0,1-.81.78.8.8,0,0,1-.54-.21,9.38,9.38,0,0,0-6.69-2.73c-5,0-8.85,4.11-8.85,9.39v.06c0,5.31,3.87,9.45,8.88,9.45a9.25,9.25,0,0,0,6.84-2.91.76.76,0,0,1,.54-.24.78.78,0,0,1,.75.75.76.76,0,0,1-.24.54,10.87,10.87,0,0,1-7.95,3.27A10.44,10.44,0,0,1,423.25,372Z"/><path class="cls-2" d="M450.79,372v-.06a10.57,10.57,0,0,1,10.59-10.86c6.36,0,10.53,5.07,10.53,10.8v.06a10.57,10.57,0,0,1-10.59,10.86C455,382.79,450.79,377.72,450.79,372Zm19.5,0v-.06c0-5.19-3.78-9.45-9-9.45s-8.91,4.2-8.91,9.39v.06c0,5.19,3.78,9.45,9,9.45S470.29,377.18,470.29,372Z"/></g></g></svg>