<svg width="566" height="431" viewBox="0 0 566 431" fill="none" xmlns="http://www.w3.org/2000/svg">
<g clip-path="url(#clip0)">
<path opacity="0.24" d="M563.76 321.94C559.95 345.85 546.57 367.69 527.94 383.14C526.64 384.2 525.35 385.2 524.03 386.2C524.03 386.2 523.97 386.2 523.94 386.26C511.019 396.092 495.859 402.562 479.82 405.09C450.36 409.49 420.68 400.63 390.96 399.09C337.69 396.3 286.35 416.87 233.87 426.28C181.39 435.69 119.64 430.41 86.36 388.72C86.16 388.49 86 388.26 85.8 388C75.27 374.52 68.64 358.48 60.31 343.45C58.87 340.83 57.3833 338.263 55.85 335.75C41.09 311.83 19.41 292.25 8.11999 266.53C2.58045 253.7 -0.18349 239.844 0.00953259 225.87C0.202555 211.897 3.34818 198.122 9.24 185.45C19.87 162.94 38.56 145.45 56.8 128.5C57.98 127.42 59.13 126.34 60.31 125.25C75.9567 110.717 91.6233 96.1867 107.31 81.66C115.93 73.66 124.56 65.66 133.52 58.04C145.39 47.84 157.72 38.33 171.17 30.42C203.95 11.07 235.11 13.27 270.7 7.20001C311.84 0.200014 353.96 -5.88999 393.97 9.96001C417.33 19.18 437.37 34.96 457.05 50.47L466.64 58.04C484.64 72.25 502.64 86.48 520.34 100.98C524.21 104.16 528.11 107.41 531.75 110.89C537.39 116.27 542.41 122.2 545.63 129.26C549.5 137.69 550.48 147.1 551.43 156.32C555.27 194.32 559.13 232.32 563.01 270.32C564.71 287.49 566.45 304.88 563.76 321.94Z" fill="#00AAFF"/>
<path d="M133.53 58.04C124.53 65.65 115.94 73.69 107.32 81.66C91.6667 96.1933 76 110.723 60.32 125.25V72.74C60.3161 70.8085 60.6936 68.8951 61.4309 67.1099C62.1683 65.3246 63.2509 63.7025 64.6167 62.3367C65.9825 60.9709 67.6046 59.8883 69.3899 59.1509C71.1752 58.4136 73.0885 58.036 75.02 58.04H133.53Z" fill="url(#paint0_linear)"/>
<path d="M531.71 110.89V373.3C531.717 376.934 530.374 380.441 527.94 383.14C526.815 384.378 525.494 385.422 524.03 386.23C524.03 386.23 523.97 386.23 523.94 386.29C521.807 387.414 519.431 388.001 517.02 388H85.8C75.27 374.52 68.64 358.48 60.31 343.45V125.25C75.9567 110.717 91.6233 96.1867 107.31 81.66C115.93 73.66 124.56 65.66 133.52 58.04H466.64C484.64 72.25 502.64 86.48 520.34 100.98C524.17 104.2 528.07 107.41 531.71 110.89Z" fill="url(#paint1_linear)"/>
<path d="M504.09 46.02H62.07C53.9569 46.02 47.38 52.5969 47.38 60.71V361.31C47.38 369.423 53.9569 376 62.07 376H504.09C512.203 376 518.78 369.423 518.78 361.31V60.71C518.78 52.5969 512.203 46.02 504.09 46.02Z" fill="#00AAFF"/>
<path d="M518.79 60.73V361.3C518.787 365.197 517.237 368.933 514.481 371.688C511.724 374.443 507.987 375.99 504.09 375.99H62.09C60.1593 375.994 58.2468 375.617 56.4622 374.88C54.6776 374.143 53.0559 373.062 51.6903 371.697C50.3246 370.332 49.2417 368.711 48.5038 366.927C47.7659 365.143 47.3874 363.231 47.39 361.3V60.73C47.3874 58.8001 47.7655 56.8887 48.5028 55.1053C49.2402 53.3218 50.3221 51.7013 51.6867 50.3367C53.0513 48.9721 54.6718 47.8902 56.4553 47.1528C58.2387 46.4155 60.1501 46.0374 62.08 46.04H504.08C506.01 46.0387 507.922 46.4176 509.706 47.1551C511.49 47.8927 513.111 48.9744 514.477 50.3385C515.843 51.7025 516.927 53.3223 517.667 55.1053C518.407 56.8883 518.789 58.7996 518.79 60.73V60.73Z" fill="url(#paint2_linear)"/>
<path opacity="0.24" d="M518.79 60.73V80.55H47.39V60.73C47.3874 58.8001 47.7655 56.8887 48.5028 55.1053C49.2402 53.3218 50.3221 51.7013 51.6867 50.3367C53.0513 48.9721 54.6718 47.8902 56.4553 47.1528C58.2387 46.4155 60.1501 46.0374 62.08 46.04H504.08C506.01 46.0387 507.922 46.4176 509.706 47.1551C511.49 47.8927 513.111 48.9744 514.477 50.3385C515.843 51.7025 516.927 53.3223 517.667 55.1053C518.407 56.8883 518.789 58.7996 518.79 60.73V60.73Z" fill="#00AAFF"/>
<path d="M518.79 60.73V80.55H47.39V60.73C47.3874 58.8001 47.7655 56.8887 48.5028 55.1053C49.2402 53.3218 50.3221 51.7013 51.6867 50.3367C53.0513 48.9721 54.6718 47.8902 56.4553 47.1528C58.2387 46.4155 60.1501 46.0374 62.08 46.04H504.08C506.01 46.0387 507.922 46.4176 509.706 47.1551C511.49 47.8927 513.111 48.9744 514.477 50.3385C515.843 51.7025 516.927 53.3223 517.667 55.1053C518.407 56.8883 518.789 58.7996 518.79 60.73V60.73Z" fill="#00AAFF"/>
<path d="M518.79 60.73V80.55H47.39V60.73C47.3874 58.8001 47.7655 56.8887 48.5028 55.1053C49.2402 53.3218 50.3221 51.7013 51.6867 50.3367C53.0513 48.9721 54.6718 47.8902 56.4553 47.1528C58.2387 46.4155 60.1501 46.0374 62.08 46.04H504.08C506.01 46.0387 507.922 46.4176 509.706 47.1551C511.49 47.8927 513.111 48.9744 514.477 50.3385C515.843 51.7025 516.927 53.3223 517.667 55.1053C518.407 56.8883 518.789 58.7996 518.79 60.73V60.73Z" fill="url(#paint3_linear)"/>
<path opacity="0.24" d="M197.62 140.89H88.02C81.9007 140.89 76.94 145.851 76.94 151.97V151.98C76.94 158.099 81.9007 163.06 88.02 163.06H197.62C203.739 163.06 208.7 158.099 208.7 151.98V151.97C208.7 145.851 203.739 140.89 197.62 140.89Z" fill="#00AAFF"/>
<path d="M142.78 291.74H88.02C81.9007 291.74 76.94 296.701 76.94 302.82V302.83C76.94 308.949 81.9007 313.91 88.02 313.91H142.78C148.899 313.91 153.86 308.949 153.86 302.83V302.82C153.86 296.701 148.899 291.74 142.78 291.74Z" fill="#00AAFF"/>
<path d="M142.78 291.74H88.02C81.9007 291.74 76.94 296.701 76.94 302.82V302.83C76.94 308.949 81.9007 313.91 88.02 313.91H142.78C148.899 313.91 153.86 308.949 153.86 302.83V302.82C153.86 296.701 148.899 291.74 142.78 291.74Z" fill="url(#paint4_linear)"/>
<path opacity="0.24" d="M152.16 172.44H86.87C83.7662 172.44 81.25 174.956 81.25 178.06V178.07C81.25 181.174 83.7662 183.69 86.87 183.69H152.16C155.264 183.69 157.78 181.174 157.78 178.07V178.06C157.78 174.956 155.264 172.44 152.16 172.44Z" fill="#00AAFF"/>
<path opacity="0.24" d="M517.8 80.55V368.71H517.7C517.7 368.71 517.7 368.71 517.64 368.71C517.504 368.62 517.36 368.543 517.21 368.48C516.13 367.98 513.64 366.84 509.93 365.1C509.5 364.9 509.08 364.7 508.62 364.51L506.39 363.46C505.86 363.23 505.34 362.97 504.81 362.74C500.38 360.67 494.94 358.14 488.71 355.22C486.8 354.34 484.84 353.42 482.77 352.44L411.52 319.2C410.08 318.55 408.67 317.86 407.23 317.2C405 316.15 402.73 315.1 400.47 314.05C398.4 313.05 396.3 312.12 394.2 311.13C388.66 308.543 383.13 305.963 377.61 303.39C375.9 302.61 374.16 301.82 372.46 301C369.57 299.65 366.72 298.31 363.86 297C362.86 296.5 361.8 296 360.75 295.55L357.83 294.2C355.96 293.34 354.12 292.49 352.28 291.6C344.02 287.77 335.98 284.03 328.37 280.45C326.66 279.7 324.99 278.91 323.32 278.12C318.32 275.79 313.48 273.53 308.92 271.4C306.65 270.35 304.49 269.33 302.36 268.35L298.64 266.63L296.38 265.58L294.15 264.53L290.64 262.89C287.43 261.38 284.44 260.01 281.64 258.73C280.82 258.33 280.03 257.97 279.27 257.61C276.85 256.46 274.65 255.45 272.71 254.53C272.06 254.27 271.47 253.97 270.88 253.71C268.22 252.46 266.15 251.51 264.81 250.89C264.554 250.743 264.29 250.609 264.02 250.49C262.91 249.97 261.82 249.44 260.77 248.89C258.87 247.89 257.07 246.89 255.39 245.89C254.64 245.43 253.89 244.94 253.16 244.44C253.008 244.375 252.866 244.287 252.74 244.18C252.11 243.76 251.49 243.3 250.87 242.84C249.88 242.155 248.926 241.421 248.01 240.64C247.39 240.11 246.77 239.59 246.18 239.06C246.18 239.06 246.11 239.06 246.08 238.97C245.46 238.41 244.83 237.82 244.24 237.23C244.24 237.23 244.24 237.23 244.18 237.16C243.45 236.47 242.8 235.75 242.18 235.06C241.56 234.37 240.9 233.62 240.35 232.9C239.8 232.18 239.2 231.42 238.67 230.67C238.14 229.92 237.62 229.16 237.16 228.4C236.7 227.64 236.25 226.86 235.85 226.08C234.627 223.772 233.622 221.355 232.85 218.86C229.63 208.33 230.58 196.86 234.29 185.11C234.343 184.896 234.41 184.685 234.49 184.48C242.03 161.06 260.27 136.76 277.42 117.6C289.035 104.683 301.467 92.5242 314.64 81.2L517.8 80.55Z" fill="#00AAFF"/>
<path opacity="0.24" d="M517.8 135.2V264.4C517.691 264.42 517.579 264.42 517.47 264.4C517.15 264.46 516.82 264.49 516.47 264.53C500.2 265.84 484.03 260.72 467.73 260.92C455.16 261.02 442.9 264.27 430.59 266.86C397.99 273.706 364.606 276.044 331.37 273.81C323.89 273.29 316.37 272.53 308.9 271.32C293.41 268.79 278.32 264.32 265.04 256.06C257.033 251.104 250.012 244.71 244.33 237.2C244.33 237.2 244.33 237.2 244.27 237.13C243.38 235.95 242.53 234.77 241.74 233.56C238.652 228.909 236.204 223.864 234.46 218.56C234.1 217.48 233.77 216.4 233.46 215.28L234.35 185.11C234.403 184.896 234.47 184.685 234.55 184.48C242.09 161.06 260.33 136.76 277.48 117.6H282.31V140.8H290.64V122.2H300.48V139.49H313.64V159.7H328.47V139.98H354.38V159.7H377.05V128.7H388.64V138.7H398.35V159.7H408.06V145.7H419.93V159.7H426.43V136.7H437.75V127.32H459.33V159.7H468.87V108.59H490.46V159.7H499.46V117.25H516.02V135.25L517.8 135.2Z" fill="#00AAFF"/>
<path d="M517.8 368.71C517.8 368.71 282.09 258.92 264.11 250.49C246.13 242.06 236.69 231.2 232.92 218.84L517.18 167.37L517.8 368.71Z" fill="#00AAFF"/>
<path d="M517.8 368.71C517.8 368.71 282.09 258.92 264.11 250.49C246.13 242.06 236.69 231.2 232.92 218.84L517.18 167.37L517.8 368.71Z" fill="url(#paint5_linear)"/>
<path d="M327.84 246.8L516.25 207.08V230.17L361.09 264.34L327.84 246.8Z" fill="url(#paint6_linear)"/>
<path d="M173.3 213.39H79.71V231.25H173.3V213.39Z" fill="url(#paint7_linear)"/>
<path d="M173.3 236.48H79.71V254.34H173.3V236.48Z" fill="url(#paint8_linear)"/>
<path d="M390.72 220.9C392.681 220.9 394.27 219.06 394.27 216.79C394.27 214.52 392.681 212.68 390.72 212.68C388.759 212.68 387.17 214.52 387.17 216.79C387.17 219.06 388.759 220.9 390.72 220.9Z" fill="#00AAFF"/>
<path d="M390.73 220.9C392.691 220.9 394.28 219.06 394.28 216.79C394.28 214.52 392.691 212.68 390.73 212.68C388.769 212.68 387.18 214.52 387.18 216.79C387.18 219.06 388.769 220.9 390.73 220.9Z" fill="url(#paint9_linear)"/>
<path d="M391.76 219.87C392.848 219.87 393.73 218.487 393.73 216.78C393.73 215.073 392.848 213.69 391.76 213.69C390.672 213.69 389.79 215.073 389.79 216.78C389.79 218.487 390.672 219.87 391.76 219.87Z" fill="url(#paint10_linear)"/>
<path d="M394.99 211.2C394.99 211.2 393.31 214.82 394.88 216.2C395.579 216.846 396.339 217.422 397.15 217.92L396.46 218.92L391.04 216.87C391.04 216.87 390.6 216.06 391.15 215.62C391.15 215.62 392.03 215.81 392.4 215.26C392.768 214.007 393.012 212.721 393.13 211.42L394.99 211.2Z" fill="#00AAFF"/>
<path d="M394.99 211.2C394.99 211.2 393.31 214.82 394.88 216.2C395.579 216.846 396.339 217.422 397.15 217.92L396.46 218.92L391.04 216.87C391.04 216.87 390.6 216.06 391.15 215.62C391.15 215.62 392.03 215.81 392.4 215.26C392.768 214.007 393.012 212.721 393.13 211.42L394.99 211.2Z" fill="url(#paint11_linear)"/>
<path d="M419.95 179.54C427.87 178.37 438.08 176.4 445.53 175.3C447.79 174.97 453.14 174.7 455.41 174.53C457.12 174.41 461.98 161.89 462.68 160.34C466.84 151.08 471.09 141.86 475.31 132.63C475.44 132.35 475.6 132.07 475.71 131.78C476.91 128.42 476.25 127.86 472.71 128C464.64 128.33 458.71 132.58 453.71 138.28C445.71 147.41 438.07 156.8 430.27 166.08C430.2 166.25 420.3 178.94 419.95 179.54Z" fill="#00AAFF"/>
<path d="M419.95 179.54C427.87 178.37 438.08 176.4 445.53 175.3C447.79 174.97 453.14 174.7 455.41 174.53C457.12 174.41 461.98 161.89 462.68 160.34C466.84 151.08 471.09 141.86 475.31 132.63C475.44 132.35 475.6 132.07 475.71 131.78C476.91 128.42 476.25 127.86 472.71 128C464.64 128.33 458.71 132.58 453.71 138.28C445.71 147.41 438.07 156.8 430.27 166.08C430.2 166.25 420.3 178.94 419.95 179.54Z" fill="url(#paint12_linear)"/>
<path d="M451.01 203.95C457.33 202.95 463.23 202.07 469.09 201.04C484.62 198.32 500.09 195.11 514.51 188.56C518.846 186.504 522.95 183.99 526.75 181.06C530.59 178.19 531.99 174.22 531.05 169.16C529.05 158.49 527.56 147.73 525.88 137.01C525.27 133.12 523.18 131.71 519.39 132.76C516.17 133.66 513.72 135.48 512.6 138.76C510.77 144.13 509.02 149.53 507.14 154.87C506.458 156.875 505.623 158.824 504.64 160.7C504.076 161.74 503.268 162.628 502.286 163.288C501.304 163.948 500.176 164.36 499 164.49C458.16 171.083 417.32 177.697 376.48 184.33C366.12 186 356.67 189.51 349.13 197.09C345.42 200.82 342.44 205.09 341.39 210.36C340.66 214.05 341.39 215.3 345.15 215.49C350.646 215.895 356.164 215.895 361.66 215.49C376.22 214.07 390.74 212.27 405.27 210.49C407.264 210.174 409.304 210.625 410.98 211.75C431.6 224.75 452.3 237.67 472.93 250.67C479.62 254.89 486.72 255.01 494.1 253.24C495.41 252.93 495.81 252.04 495.1 250.95C494.334 249.67 493.432 248.477 492.41 247.39C479.23 233.597 466.05 219.81 452.87 206.03C452.33 205.47 451.83 204.87 451.01 203.95Z" fill="#00AAFF"/>
<path d="M526.73 181.06C522.946 184 518.847 186.512 514.51 188.55C500.04 195.12 484.61 198.32 469.1 201.02C463.24 202.02 457.34 202.94 451.02 203.93C451.85 204.85 452.35 205.47 452.89 206.01C466.07 219.82 479.25 233.58 492.39 247.43C493.417 248.504 494.322 249.688 495.09 250.96C495.76 252.04 495.34 252.96 494.09 253.25C486.73 255.04 479.62 254.91 472.93 250.67C452.3 237.67 431.6 224.81 410.93 211.75C409.248 210.648 407.219 210.203 405.23 210.5C390.68 212.25 376.17 214.04 361.62 215.45C356.125 215.865 350.606 215.865 345.11 215.45C341.33 215.25 340.62 214 341.33 210.34C342.41 205.02 345.33 200.78 349.06 197.07C356.63 189.47 366.06 185.97 376.42 184.31C417.293 177.697 458.14 171.07 498.96 164.43C500.135 164.315 501.264 163.91 502.243 163.25C503.223 162.59 504.022 161.696 504.57 160.65C505.589 158.784 506.452 156.838 507.15 154.83C509.02 149.46 510.77 144.1 512.6 138.7C513.72 135.45 516.17 133.62 519.37 132.7C523.2 131.7 525.28 133.07 525.86 136.94C527.36 146.46 528.73 156.02 530.43 165.55C530.6 166.75 530.85 167.92 531.06 169.12C531.97 174.2 530.64 178.2 526.73 181.06Z" fill="url(#paint13_linear)"/>
<path d="M494.05 253.25C486.69 255.04 479.58 254.91 472.89 250.67C452.26 237.67 431.56 224.81 410.89 211.75C409.208 210.648 407.179 210.203 405.19 210.5C390.64 212.25 376.13 214.04 361.58 215.45C356.085 215.865 350.566 215.865 345.07 215.45C341.29 215.25 340.58 214 341.29 210.34L392.23 204.34C400.072 203.425 408.011 204.775 415.11 208.23L417.92 209.59C417.92 209.59 476.46 249.01 484.66 249.76C492.86 250.51 495.05 250.88 495.05 250.88C495.76 252.04 495.34 252.96 494.05 253.25Z" fill="url(#paint14_linear)"/>
<path d="M526.73 181.06C522.946 184 518.847 186.512 514.51 188.55C500.04 195.12 484.61 198.32 469.1 201.02C463.24 202.02 457.34 202.94 451.02 203.93L446.52 198.82C446.52 198.82 505.64 188.01 515.34 179.53C524.16 171.79 529.56 166.47 530.43 165.6C530.6 166.8 530.85 167.97 531.06 169.17C531.97 174.2 530.64 178.2 526.73 181.06Z" fill="url(#paint15_linear)"/>
<path d="M396.8 223.13C398.761 223.13 400.35 221.29 400.35 219.02C400.35 216.75 398.761 214.91 396.8 214.91C394.839 214.91 393.25 216.75 393.25 219.02C393.25 221.29 394.839 223.13 396.8 223.13Z" fill="#00AAFF"/>
<path d="M396.81 223.13C398.771 223.13 400.36 221.29 400.36 219.02C400.36 216.75 398.771 214.91 396.81 214.91C394.849 214.91 393.26 216.75 393.26 219.02C393.26 221.29 394.849 223.13 396.81 223.13Z" fill="url(#paint16_linear)"/>
<path d="M397.84 222.1C398.928 222.1 399.81 220.717 399.81 219.01C399.81 217.303 398.928 215.92 397.84 215.92C396.752 215.92 395.87 217.303 395.87 219.01C395.87 220.717 396.752 222.1 397.84 222.1Z" fill="url(#paint17_linear)"/>
</g>
<defs>
<linearGradient id="paint0_linear" x1="97.6" y1="124.48" x2="96.21" y2="57.6" gradientUnits="userSpaceOnUse">
<stop stop-color="white" stop-opacity="0"/>
<stop offset="0.13" stop-color="white" stop-opacity="0.23"/>
<stop offset="0.23" stop-color="white" stop-opacity="0.41"/>
<stop offset="0.35" stop-color="white" stop-opacity="0.59"/>
<stop offset="0.48" stop-color="white" stop-opacity="0.74"/>
<stop offset="0.6" stop-color="white" stop-opacity="0.85"/>
<stop offset="0.72" stop-color="white" stop-opacity="0.93"/>
<stop offset="0.84" stop-color="white" stop-opacity="0.98"/>
<stop offset="0.95" stop-color="white"/>
</linearGradient>
<linearGradient id="paint1_linear" x1="635.23" y1="630.7" x2="-190.44" y2="-333.51" gradientUnits="userSpaceOnUse">
<stop stop-color="#010101" stop-opacity="0"/>
<stop offset="0.95" stop-color="#010101"/>
</linearGradient>
<linearGradient id="paint2_linear" x1="137508" y1="163790" x2="134948" y2="-11762.1" gradientUnits="userSpaceOnUse">
<stop stop-color="white" stop-opacity="0"/>
<stop offset="0.13" stop-color="white" stop-opacity="0.23"/>
<stop offset="0.23" stop-color="white" stop-opacity="0.41"/>
<stop offset="0.35" stop-color="white" stop-opacity="0.59"/>
<stop offset="0.48" stop-color="white" stop-opacity="0.74"/>
<stop offset="0.6" stop-color="white" stop-opacity="0.85"/>
<stop offset="0.72" stop-color="white" stop-opacity="0.93"/>
<stop offset="0.84" stop-color="white" stop-opacity="0.98"/>
<stop offset="0.95" stop-color="white"/>
</linearGradient>
<linearGradient id="paint3_linear" x1="133454" y1="2715.39" x2="133548" y2="14204.4" gradientUnits="userSpaceOnUse">
<stop stop-color="#010101" stop-opacity="0"/>
<stop offset="0.95" stop-color="#010101"/>
</linearGradient>
<linearGradient id="paint4_linear" x1="8966.58" y1="6761.62" x2="8956.74" y2="8912.16" gradientUnits="userSpaceOnUse">
<stop stop-color="#010101" stop-opacity="0"/>
<stop offset="0.95" stop-color="#010101"/>
</linearGradient>
<linearGradient id="paint5_linear" x1="96824.3" y1="28745.6" x2="144462" y2="181770" gradientUnits="userSpaceOnUse">
<stop stop-color="white" stop-opacity="0"/>
<stop offset="0.13" stop-color="white" stop-opacity="0.23"/>
<stop offset="0.23" stop-color="white" stop-opacity="0.41"/>
<stop offset="0.35" stop-color="white" stop-opacity="0.59"/>
<stop offset="0.48" stop-color="white" stop-opacity="0.74"/>
<stop offset="0.6" stop-color="white" stop-opacity="0.85"/>
<stop offset="0.72" stop-color="white" stop-opacity="0.93"/>
<stop offset="0.84" stop-color="white" stop-opacity="0.98"/>
<stop offset="0.95" stop-color="white"/>
</linearGradient>
<linearGradient id="paint6_linear" x1="71392.3" y1="14314.2" x2="169720" y2="-41760.1" gradientUnits="userSpaceOnUse">
<stop stop-color="#010101" stop-opacity="0"/>
<stop offset="0.95" stop-color="#010101"/>
</linearGradient>
<linearGradient id="paint7_linear" x1="11856.1" y1="3225.66" x2="11860.8" y2="5197.16" gradientUnits="userSpaceOnUse">
<stop stop-color="white" stop-opacity="0"/>
<stop offset="0.13" stop-color="white" stop-opacity="0.23"/>
<stop offset="0.23" stop-color="white" stop-opacity="0.41"/>
<stop offset="0.35" stop-color="white" stop-opacity="0.59"/>
<stop offset="0.48" stop-color="white" stop-opacity="0.74"/>
<stop offset="0.6" stop-color="white" stop-opacity="0.85"/>
<stop offset="0.72" stop-color="white" stop-opacity="0.93"/>
<stop offset="0.84" stop-color="white" stop-opacity="0.98"/>
<stop offset="0.95" stop-color="white"/>
</linearGradient>
<linearGradient id="paint8_linear" x1="11829" y1="3248.75" x2="11833.7" y2="5220.25" gradientUnits="userSpaceOnUse">
<stop stop-color="white" stop-opacity="0"/>
<stop offset="0.13" stop-color="white" stop-opacity="0.23"/>
<stop offset="0.23" stop-color="white" stop-opacity="0.41"/>
<stop offset="0.35" stop-color="white" stop-opacity="0.59"/>
<stop offset="0.48" stop-color="white" stop-opacity="0.74"/>
<stop offset="0.6" stop-color="white" stop-opacity="0.85"/>
<stop offset="0.72" stop-color="white" stop-opacity="0.93"/>
<stop offset="0.84" stop-color="white" stop-opacity="0.98"/>
<stop offset="0.95" stop-color="white"/>
</linearGradient>
<linearGradient id="paint9_linear" x1="3218.02" y1="1944.8" x2="3133.39" y2="2000.46" gradientUnits="userSpaceOnUse">
<stop stop-color="#010101" stop-opacity="0"/>
<stop offset="0.95" stop-color="#010101"/>
</linearGradient>
<linearGradient id="paint10_linear" x1="1953.73" y1="1529.1" x2="1918.44" y2="1546.21" gradientUnits="userSpaceOnUse">
<stop stop-color="#010101" stop-opacity="0"/>
<stop offset="0.95" stop-color="#010101"/>
</linearGradient>
<linearGradient id="paint11_linear" x1="2875.6" y1="2165.6" x2="2888.51" y2="2164.62" gradientUnits="userSpaceOnUse">
<stop stop-color="#010101" stop-opacity="0"/>
<stop offset="0.95" stop-color="#010101"/>
</linearGradient>
<linearGradient id="paint12_linear" x1="25318.1" y1="11397.8" x2="25965.5" y2="9429.52" gradientUnits="userSpaceOnUse">
<stop stop-color="white" stop-opacity="0"/>
<stop offset="0.13" stop-color="white" stop-opacity="0.23"/>
<stop offset="0.23" stop-color="white" stop-opacity="0.41"/>
<stop offset="0.35" stop-color="white" stop-opacity="0.59"/>
<stop offset="0.48" stop-color="white" stop-opacity="0.74"/>
<stop offset="0.6" stop-color="white" stop-opacity="0.85"/>
<stop offset="0.72" stop-color="white" stop-opacity="0.93"/>
<stop offset="0.84" stop-color="white" stop-opacity="0.98"/>
<stop offset="0.95" stop-color="white"/>
</linearGradient>
<linearGradient id="paint13_linear" x1="80047.9" y1="34518.5" x2="81573.3" y2="28517.4" gradientUnits="userSpaceOnUse">
<stop stop-color="white" stop-opacity="0"/>
<stop offset="0.13" stop-color="white" stop-opacity="0.23"/>
<stop offset="0.23" stop-color="white" stop-opacity="0.41"/>
<stop offset="0.35" stop-color="white" stop-opacity="0.59"/>
<stop offset="0.48" stop-color="white" stop-opacity="0.74"/>
<stop offset="0.6" stop-color="white" stop-opacity="0.85"/>
<stop offset="0.72" stop-color="white" stop-opacity="0.93"/>
<stop offset="0.84" stop-color="white" stop-opacity="0.98"/>
<stop offset="0.95" stop-color="white"/>
</linearGradient>
<linearGradient id="paint14_linear" x1="68244.9" y1="11178.1" x2="65355.7" y2="35908" gradientUnits="userSpaceOnUse">
<stop stop-color="#010101" stop-opacity="0"/>
<stop offset="0.95" stop-color="#010101"/>
</linearGradient>
<linearGradient id="paint15_linear" x1="42061.6" y1="8290.41" x2="42423" y2="13545.8" gradientUnits="userSpaceOnUse">
<stop stop-color="#010101" stop-opacity="0"/>
<stop offset="0.95" stop-color="#010101"/>
</linearGradient>
<linearGradient id="paint16_linear" x1="3267.26" y1="1965.36" x2="3182.64" y2="2020.94" gradientUnits="userSpaceOnUse">
<stop stop-color="#010101" stop-opacity="0"/>
<stop offset="0.95" stop-color="#010101"/>
</linearGradient>
<linearGradient id="paint17_linear" x1="1983.73" y1="1545.05" x2="1948.45" y2="1562.21" gradientUnits="userSpaceOnUse">
<stop stop-color="#010101" stop-opacity="0"/>
<stop offset="0.95" stop-color="#010101"/>
</linearGradient>
<clipPath id="clip0">
<rect width="565.15" height="430.27" fill="white"/>
</clipPath>
</defs>
</svg>
